<?xml version="1.0" encoding="UTF-8"?>
<svg width="478px" height="451px" viewBox="0 0 478 451" version="1.1" xmlns="http://www.w3.org/2000/svg" xmlns:xlink="http://www.w3.org/1999/xlink">
    <!-- Generator: Sketch 49.3 (51167) - http://www.bohemiancoding.com/sketch -->
    <title>logo1</title>
    <desc>Created with Sketch.</desc>
    <defs>
        <filter x="-0.5%" y="-0.9%" width="101.0%" height="102.6%" filterUnits="objectBoundingBox" id="filter-1">
            <feOffset dx="0" dy="2" in="SourceAlpha" result="shadowOffsetOuter1"></feOffset>
            <feGaussianBlur stdDeviation="2" in="shadowOffsetOuter1" result="shadowBlurOuter1"></feGaussianBlur>
            <feColorMatrix values="0 0 0 0 0   0 0 0 0 0   0 0 0 0 0  0 0 0 0.25 0" type="matrix" in="shadowBlurOuter1" result="shadowMatrixOuter1"></feColorMatrix>
            <feMerge>
                <feMergeNode in="shadowMatrixOuter1"></feMergeNode>
                <feMergeNode in="SourceGraphic"></feMergeNode>
            </feMerge>
        </filter>
        <path d="M127.77254,205.03484 L127.77254,312.96516 L166.379041,312.96516 L166.379041,288.893661 C166.379041,287.005876 167.415754,285.590037 169.188469,285.590037 C170.96539,285.590037 172,287.005876 172,288.893661 L172,315.011752 C172,316.740731 171.112591,318 169.188469,318 L78.8115307,318 C77.1818102,318 76,317.056107 76,315.483699 C76,313.91129 77.1818102,312.96516 78.8115307,312.96516 L92.2719706,312.96516 L92.2719706,205.03484 L78.8115307,205.03484 C77.1818102,205.03484 76,204.08871 76,202.518538 C76,200.943893 77.1818102,200 78.8115307,200 L141.230877,200 C142.860598,200 144.044511,200.943893 144.044511,202.518538 C144.044511,204.08871 142.860598,205.03484 141.230877,205.03484 L127.77254,205.03484 Z" id="path-2"></path>
        <path d="M298.106597,258.213781 C298.106597,225.803203 279.83998,205.034935 251.849458,205.034935 L237.56204,205.034935 L237.56204,312.967302 L251.849458,312.967302 C277.483876,312.967302 298.106597,290.311212 298.106597,258.213781 Z M188.800099,312.967302 L202.203717,312.967302 L202.203717,205.034935 L188.800099,205.034935 C187.177005,205.034935 186,204.247597 186,202.518586 C186,201.100483 187.177005,200 188.800099,200 L250.819055,200 C281.607582,200 304,221.868752 304,258.213781 C304,294.402237 279.251478,318 250.819055,318 L188.800099,318 C187.177005,318 186,316.899517 186,315.483651 C186,313.752403 187.177005,312.967302 188.800099,312.967302 Z" id="path-3"></path>
        <path d="M323.187488,286.231482 C323.187488,302.917056 337.16625,314.341374 352.589396,314.341374 C366.13382,314.341374 370.889017,305.923793 370.889017,297.657938 C370.889017,286.985838 363.251199,282.175486 346.389816,271.800427 C327.510394,260.22652 319.007995,252.862472 319.007995,236.324351 C319.007995,214.680974 338.321757,201 360.081751,201 C374.34939,201 382.130622,205.359448 386.885819,211.221196 L386.885819,205.660763 C386.885819,204.158463 387.7504,202.953204 389.479562,202.953204 C391.208725,202.953204 392.075355,204.158463 392.075355,205.660763 L392.075355,234.822051 C392.075355,236.476077 391.208725,237.677062 389.479562,237.677062 C387.7504,237.677062 386.885819,236.476077 386.885819,234.822051 L386.885819,220.993625 C386.885819,216.634177 379.969168,205.810352 364.259194,205.810352 C354.605387,205.810352 345.525235,210.770292 345.525235,222.045022 C345.525235,232.266218 350.137018,236.025173 369.159854,246.697273 C387.172646,256.76888 400,264.735557 400,283.07302 C400,306.222971 379.393464,319 357.201179,319 C338.754048,319 329.098191,312.386034 323.187488,303.216234 L323.187488,314.191785 C323.187488,315.843674 322.322906,317.046796 320.593744,317.046796 C318.86663,317.046796 318,315.843674 318,314.191785 L318,278.416531 C318,276.760368 318.86663,275.559383 320.593744,275.559383 C322.322906,275.559383 323.187488,276.760368 323.187488,278.416531 L323.187488,286.231482 Z" id="path-4"></path>
    </defs>
    <g id="Page-1" stroke="none" stroke-width="1" fill="none" fill-rule="evenodd">
        <g id="landingPage" transform="translate(-85.000000, -124.000000)">
            <g id="sewing-threads-on-wall_4460x4460" filter="url(#filter-1)" transform="translate(0.000000, 80.000000)">
                <g id="logo1" transform="translate(90.000000, 47.000000)">
                    <path d="M30.38463,296.472742 C37.8445983,307.782328 47.4834683,313.735511 52.5277451,310.547002 C54.3764443,309.377801 54.7479221,307.032091 53.5639725,304.674202 C50.6725288,298.925629 40.30591,294.175749 30.38463,296.472742 M65.4370016,329.975696 C65.4370016,329.975696 66.6573146,330.043273 67.0704085,330.804059 C67.6689731,331.89619 67.3022469,333.001401 66.3243104,333.572535 C65.997629,333.762187 65.4981226,333.831943 65.0787059,333.851562 C53.0526158,333.084237 21.7797232,322.31334 16.5401754,312.697792 C12.0804476,304.514439 13.5115228,297.676086 20.6879751,293.490674 C34.1451405,285.645206 50.8522586,292.24159 55.7714479,301.268565 C58.5324325,306.328118 57.693599,310.707541 53.3729743,313.229688 C46.7676875,317.081575 34.7647813,309.84866 26.0919175,296.897861 C25.1498105,297.338201 24.1255063,297.824319 23.2276594,298.347496 C18.2536719,301.248946 17.562372,306.097048 20.2769889,311.073765 C24.0475243,317.990594 54.2118078,329.295567 65.4370016,329.975696" id="Fill-1" fill="#E9B224"></path>
                    <path d="M30.38463,296.472742 C37.8445983,307.782328 47.4834683,313.735511 52.5277451,310.547002 C54.3764443,309.377801 54.7479221,307.032091 53.5639725,304.674202 C50.6725288,298.925629 40.30591,294.175749 30.38463,296.472742 Z M65.4370016,329.975696 C65.4370016,329.975696 66.6573146,330.043273 67.0704085,330.804059 C67.6689731,331.89619 67.3022469,333.001401 66.3243104,333.572535 C65.997629,333.762187 65.4981226,333.831943 65.0787059,333.851562 C53.0526158,333.084237 21.7797232,322.31334 16.5401754,312.697792 C12.0804476,304.514439 13.5115228,297.676086 20.6879751,293.490674 C34.1451405,285.645206 50.8522586,292.24159 55.7714479,301.268565 C58.5324325,306.328118 57.693599,310.707541 53.3729743,313.229688 C46.7676875,317.081575 34.7647813,309.84866 26.0919175,296.897861 C25.1498105,297.338201 24.1255063,297.824319 23.2276594,298.347496 C18.2536719,301.248946 17.562372,306.097048 20.2769889,311.073765 C24.0475243,317.990594 54.2118078,329.295567 65.4370016,329.975696 Z" id="Stroke-3" stroke="#E9B224"></path>
                    <path d="M106.78419,359.96177 C101.111033,365.789211 89.3085768,365.439009 83.4402333,371.473582 C81.5265508,373.438128 81.5477668,375.582045 83.230195,377.243368 C86.7987249,380.762467 111.922703,382.308479 121.565372,380.128261 C122.428863,379.918994 123.031397,380.115448 123.436622,380.512628 C124.17706,381.242927 124.18979,382.449414 123.462081,383.196796 C123.199003,383.465853 122.802264,383.739181 122.269743,383.877981 C111.763583,386.267467 85.5745621,384.86666 80.0520393,379.423587 C76.5535222,375.970684 76.506847,371.40952 80.3299688,367.480429 C86.2683251,361.379659 98.9300294,361.114873 103.614521,356.303871 C104.999925,354.879575 105.050843,353.335698 103.769397,352.075826 C100.943427,349.287025 91.6784032,349.180256 85.0187031,350.053625 C78.9636589,350.854391 70.0062669,354.907335 63.0452998,358.667732 C61.9187306,359.284856 60.3933007,360.036508 59.0460852,358.708304 C58.3735382,358.046338 57.9598264,356.841986 58.9484916,355.825547 C59.4767698,355.283161 60.2087216,354.939366 61.0700909,354.461041 C67.0381495,351.448026 76.6574805,346.989361 83.0901694,343.769214 C85.2775382,342.605434 87.0002768,341.514257 87.7916334,340.700678 C89.1770377,339.276383 89.227956,337.734641 87.8807405,336.406437 C84.717436,333.286653 75.3145082,333.047491 68.6590514,333.92086 C62.6018855,334.723761 53.5766023,338.706237 46.6156352,342.46877 C45.489066,343.083758 43.9657577,343.83541 42.6185422,342.509342 C41.9438737,341.84524 41.6680658,340.775417 42.5888398,339.825174 C43.1828876,339.214457 43.5817483,338.943264 44.440996,338.46494 C54.9832226,332.921504 67.2587959,327.495513 76.7508309,323.438299 C78.3441519,322.750708 79.6786378,322.872424 80.6206279,323.801313 C81.6326307,324.796398 81.6432387,326.005021 80.7861126,326.886931 C79.9947561,327.698374 78.1362352,328.522629 75.2763194,329.291365 L72.42489,330.461551 C79.682881,329.780366 87.2188016,330.307804 90.7873315,333.826903 C94.0864183,337.079081 94.1267287,341.1064 90.9613026,344.358578 C90.0362854,345.306684 88.9776073,345.990005 87.5858382,346.741657 C95.0432596,345.859747 103.245362,346.109586 106.542327,349.361763 C109.639862,352.417486 109.883846,356.775789 106.78419,359.96177" id="Fill-5" fill="#E9B224"></path>
                    <path d="M106.78419,359.96177 C101.111033,365.789211 89.3085768,365.439009 83.4402333,371.473582 C81.5265508,373.438128 81.5477668,375.582045 83.230195,377.243368 C86.7987249,380.762467 111.922703,382.308479 121.565372,380.128261 C122.428863,379.918994 123.031397,380.115448 123.436622,380.512628 C124.17706,381.242927 124.18979,382.449414 123.462081,383.196796 C123.199003,383.465853 122.802264,383.739181 122.269743,383.877981 C111.763583,386.267467 85.5745621,384.86666 80.0520393,379.423587 C76.5535222,375.970684 76.506847,371.40952 80.3299688,367.480429 C86.2683251,361.379659 98.9300294,361.114873 103.614521,356.303871 C104.999925,354.879575 105.050843,353.335698 103.769397,352.075826 C100.943427,349.287025 91.6784032,349.180256 85.0187031,350.053625 C78.9636589,350.854391 70.0062669,354.907335 63.0452998,358.667732 C61.9187306,359.284856 60.3933007,360.036508 59.0460852,358.708304 C58.3735382,358.046338 57.9598264,356.841986 58.9484916,355.825547 C59.4767698,355.283161 60.2087216,354.939366 61.0700909,354.461041 C67.0381495,351.448026 76.6574805,346.989361 83.0901694,343.769214 C85.2775382,342.605434 87.0002768,341.514257 87.7916334,340.700678 C89.1770377,339.276383 89.227956,337.734641 87.8807405,336.406437 C84.717436,333.286653 75.3145082,333.047491 68.6590514,333.92086 C62.6018855,334.723761 53.5766023,338.706237 46.6156352,342.46877 C45.489066,343.083758 43.9657577,343.83541 42.6185422,342.509342 C41.9438737,341.84524 41.6680658,340.775417 42.5888398,339.825174 C43.1828876,339.214457 43.5817483,338.943264 44.440996,338.46494 C54.9832226,332.921504 67.2587959,327.495513 76.7508309,323.438299 C78.3441519,322.750708 79.6786378,322.872424 80.6206279,323.801313 C81.6326307,324.796398 81.6432387,326.005021 80.7861126,326.886931 C79.9947561,327.698374 78.1362352,328.522629 75.2763194,329.291365 L72.42489,330.461551 C79.682881,329.780366 87.2188016,330.307804 90.7873315,333.826903 C94.0864183,337.079081 94.1267287,341.1064 90.9613026,344.358578 C90.0362854,345.306684 88.9776073,345.990005 87.5858382,346.741657 C95.0432596,345.859747 103.245362,346.109586 106.542327,349.361763 C109.639862,352.417486 109.883846,356.775789 106.78419,359.96177 Z" id="Stroke-7" stroke="#E9B224"></path>
                    <path d="M128.852929,404.335138 C128.894295,404.054709 128.894295,403.858409 129.014455,403.622048 C129.690106,402.271984 131.179297,401.845331 132.426199,402.492321 L132.504992,402.534385 C137.378349,399.866306 141.75531,395.641848 144.101376,390.964697 C146.12833,386.922518 145.399494,384.847345 143.1401,383.675554 C139.086191,381.574341 130.972465,383.060614 124.487787,386.592012 C120.989371,388.472888 117.327458,391.467466 115.617646,394.876678 C113.310976,399.473706 114.616973,402.949019 117.42201,404.401239 C120.619043,406.059774 124.769473,405.813398 128.852929,404.335138 M156.50933,406.873018 C156.50933,406.873018 157.567128,406.43635 158.207323,406.901061 C159.081927,407.648203 159.245423,408.639719 158.634776,409.509048 C158.431883,409.799492 158.032008,410.055884 157.689258,410.244171 C148.909729,413.707466 140.272028,415.45013 134.581192,412.497616 C132.554238,411.450015 130.881853,409.88362 129.87921,408.16299 C124.818718,409.63524 119.693223,409.673299 115.639315,407.572086 C110.415328,404.865949 108.30761,399.077099 111.526311,392.655282 C113.513869,388.691222 116.667565,385.532392 120.609194,381.982966 C123.841683,379.064504 141.650909,363.526751 145.235998,360.490108 C146.888685,359.15006 148.498035,358.685349 149.510527,359.212155 C150.836222,359.897202 151.218369,361.097036 150.662877,362.206733 C149.746907,364.029519 146.520326,366.551375 141.014654,369.890479 L126.711724,382.349527 C133.783411,379.024443 140.325214,378.121062 144.924765,380.506709 C149.524316,382.892356 151.0923,387.599553 148.072552,393.622761 C145.249787,399.251366 139.732295,403.982599 133.647493,406.720785 C134.147829,407.880558 135.195779,408.92215 136.67709,409.691326 C140.340972,411.590229 148.492125,410.013819 156.50933,406.873018" id="Fill-9" fill="#E9B224"></path>
                    <path d="M128.852929,404.335138 C128.894295,404.054709 128.894295,403.858409 129.014455,403.622048 C129.690106,402.271984 131.179297,401.845331 132.426199,402.492321 L132.504992,402.534385 C137.378349,399.866306 141.75531,395.641848 144.101376,390.964697 C146.12833,386.922518 145.399494,384.847345 143.1401,383.675554 C139.086191,381.574341 130.972465,383.060614 124.487787,386.592012 C120.989371,388.472888 117.327458,391.467466 115.617646,394.876678 C113.310976,399.473706 114.616973,402.949019 117.42201,404.401239 C120.619043,406.059774 124.769473,405.813398 128.852929,404.335138 Z M156.50933,406.873018 C156.50933,406.873018 157.567128,406.43635 158.207323,406.901061 C159.081927,407.648203 159.245423,408.639719 158.634776,409.509048 C158.431883,409.799492 158.032008,410.055884 157.689258,410.244171 C148.909729,413.707466 140.272028,415.45013 134.581192,412.497616 C132.554238,411.450015 130.881853,409.88362 129.87921,408.16299 C124.818718,409.63524 119.693223,409.673299 115.639315,407.572086 C110.415328,404.865949 108.30761,399.077099 111.526311,392.655282 C113.513869,388.691222 116.667565,385.532392 120.609194,381.982966 C123.841683,379.064504 141.650909,363.526751 145.235998,360.490108 C146.888685,359.15006 148.498035,358.685349 149.510527,359.212155 C150.836222,359.897202 151.218369,361.097036 150.662877,362.206733 C149.746907,364.029519 146.520326,366.551375 141.014654,369.890479 L126.711724,382.349527 C133.783411,379.024443 140.325214,378.121062 144.924765,380.506709 C149.524316,382.892356 151.0923,387.599553 148.072552,393.622761 C145.249787,399.251366 139.732295,403.982599 133.647493,406.720785 C134.147829,407.880558 135.195779,408.92215 136.67709,409.691326 C140.340972,411.590229 148.492125,410.013819 156.50933,406.873018 Z" id="Stroke-11" stroke="#E9B224"></path>
                    <path d="M175.937839,431.337557 C181.191947,432.535511 201.670086,421.973272 209.491438,415.260091 C210.186158,414.644242 210.855574,414.509261 211.451377,414.644242 C212.539465,414.891004 213.211181,415.913904 212.939734,416.913605 C212.840817,417.278474 212.617679,417.710835 212.199006,418.096795 C203.680634,425.423716 182.289236,436.650313 174.157331,434.796437 C168.799705,433.575284 166.241663,429.4183 167.796731,423.687948 C169.770473,416.413754 180.593843,410.291115 181.948778,405.288393 C182.615893,402.833431 179.020371,400.950029 177.009824,399.043427 C172.432033,403.890077 161.59716,408.732509 154.447524,412.014228 C153.589476,412.414951 152.834945,412.657495 152.048209,412.223026 C151.082042,411.695757 150.713979,410.618021 151.24077,409.812355 C151.606533,409.251342 151.993,409.025671 152.710724,408.656583 C159.089727,405.824097 168.337325,402.282963 173.80767,396.092833 L174.129726,394.911752 C175.781412,388.818639 180.262586,385.496849 182.742415,386.062081 C184.824275,386.536622 185.719129,387.899083 185.298157,389.447143 C184.881785,390.990985 183.17489,393.401656 180.179772,396.291086 C182.809126,399.39986 188.61303,402.076274 187.453629,406.349257 C185.801944,412.442369 174.927964,417.976578 172.88061,425.524951 C172.040965,428.616853 173.257875,430.728035 175.937839,431.337557" id="Fill-13" fill="#E9B224"></path>
                    <path d="M175.937839,431.337557 C181.191947,432.535511 201.670086,421.973272 209.491438,415.260091 C210.186158,414.644242 210.855574,414.509261 211.451377,414.644242 C212.539465,414.891004 213.211181,415.913904 212.939734,416.913605 C212.840817,417.278474 212.617679,417.710835 212.199006,418.096795 C203.680634,425.423716 182.289236,436.650313 174.157331,434.796437 C168.799705,433.575284 166.241663,429.4183 167.796731,423.687948 C169.770473,416.413754 180.593843,410.291115 181.948778,405.288393 C182.615893,402.833431 179.020371,400.950029 177.009824,399.043427 C172.432033,403.890077 161.59716,408.732509 154.447524,412.014228 C153.589476,412.414951 152.834945,412.657495 152.048209,412.223026 C151.082042,411.695757 150.713979,410.618021 151.24077,409.812355 C151.606533,409.251342 151.993,409.025671 152.710724,408.656583 C159.089727,405.824097 168.337325,402.282963 173.80767,396.092833 L174.129726,394.911752 C175.781412,388.818639 180.262586,385.496849 182.742415,386.062081 C184.824275,386.536622 185.719129,387.899083 185.298157,389.447143 C184.881785,390.990985 183.17489,393.401656 180.179772,396.291086 C182.809126,399.39986 188.61303,402.076274 187.453629,406.349257 C185.801944,412.442369 174.927964,417.976578 172.88061,425.524951 C172.040965,428.616853 173.257875,430.728035 175.937839,431.337557 Z" id="Stroke-15" stroke="#E9B224"></path>
                    <path d="M231.656355,403.992697 C223.75523,403.861208 212.681077,415.364314 212.490218,427.242164 C212.388282,433.571174 215.899652,436.84087 220.139756,436.910997 C224.091402,436.976742 228.079919,434.706363 231.315845,431.156157 C231.222584,430.958923 231.226922,430.766073 231.229091,430.57103 C231.252948,429.012884 232.428466,427.862355 233.875089,427.787844 C236.839909,423.358852 238.757173,417.838501 238.841758,412.679744 C238.93285,406.935861 236.089486,404.065016 231.656355,403.992697 M265.451391,413.247339 C265.451391,413.247339 266.141086,412.18666 267.010795,412.202001 C268.262222,412.318149 269.019151,413.111467 268.999631,414.277337 C268.993125,414.669613 268.793591,415.15174 268.594056,415.539633 C262.770691,424.206957 248.380365,436.69404 240.962894,436.571317 C238.362442,436.529679 235.866094,435.80868 234.055104,434.511321 C229.945131,438.534888 224.891708,441.079202 219.879494,440.998118 C212.271164,440.871011 206.853374,436.010297 207.003025,426.860846 C207.235092,412.355405 220.545331,399.817917 231.81685,400.002002 C239.524946,400.126917 244.172794,404.878057 244.040494,412.960255 C243.938558,419.287073 241.229663,425.962337 237.100171,431.153966 C238.141219,432.144517 239.770026,432.755941 241.698135,432.788814 C246.612751,432.867707 260.118186,421.143261 265.451391,413.247339" id="Fill-17" fill="#E9B224"></path>
                    <path d="M231.656355,403.992697 C223.75523,403.861208 212.681077,415.364314 212.490218,427.242164 C212.388282,433.571174 215.899652,436.84087 220.139756,436.910997 C224.091402,436.976742 228.079919,434.706363 231.315845,431.156157 C231.222584,430.958923 231.226922,430.766073 231.229091,430.57103 C231.252948,429.012884 232.428466,427.862355 233.875089,427.787844 C236.839909,423.358852 238.757173,417.838501 238.841758,412.679744 C238.93285,406.935861 236.089486,404.065016 231.656355,403.992697 Z M265.451391,413.247339 C265.451391,413.247339 266.141086,412.18666 267.010795,412.202001 C268.262222,412.318149 269.019151,413.111467 268.999631,414.277337 C268.993125,414.669613 268.793591,415.15174 268.594056,415.539633 C262.770691,424.206957 248.380365,436.69404 240.962894,436.571317 C238.362442,436.529679 235.866094,435.80868 234.055104,434.511321 C229.945131,438.534888 224.891708,441.079202 219.879494,440.998118 C212.271164,440.871011 206.853374,436.010297 207.003025,426.860846 C207.235092,412.355405 220.545331,399.817917 231.81685,400.002002 C239.524946,400.126917 244.172794,404.878057 244.040494,412.960255 C243.938558,419.287073 241.229663,425.962337 237.100171,431.153966 C238.141219,432.144517 239.770026,432.755941 241.698135,432.788814 C246.612751,432.867707 260.118186,421.143261 265.451391,413.247339 Z" id="Stroke-19" stroke="#E9B224"></path>
                    <path d="M275.826006,379.067374 C277.922735,378.732978 279.846933,379.650477 280.268675,381.661034 C280.616133,383.303755 279.391643,386.238082 276.461015,386.708326 C274.366683,387.040632 272.35622,386.231812 271.934478,384.223345 C271.529509,382.304747 273.209289,379.485369 275.826006,379.067374 M299.91083,402.264017 C300.277458,401.448926 300.850164,401.072731 301.477984,400.972412 C302.630586,400.788494 303.744848,401.459376 303.955719,402.462565 C304.032399,402.8304 304.02521,403.302735 303.807151,403.810599 C299.158403,413.616766 282.729635,432.436999 274.143831,433.812203 C268.277783,434.752693 263.729678,432.173662 262.385376,425.782516 C261.079413,419.571107 263.315125,410.147406 265.759312,403.242126 C267.853644,397.241805 269.049379,394.692034 270.61893,394.439147 C272.399352,394.15491 273.638219,394.901032 273.908997,396.180097 C274.234889,397.732949 273.24044,400.721615 271.174863,405.304932 C268.987076,411.884176 267.02933,419.562748 268.184328,425.040574 C269.049379,429.151557 271.383337,430.478692 274.210926,430.025167 C279.763064,429.136927 295.631107,411.253003 299.91083,402.264017" id="Fill-21" fill="#E9B224"></path>
                    <path d="M275.826006,379.067374 C277.922735,378.732978 279.846933,379.650477 280.268675,381.661034 C280.616133,383.303755 279.391643,386.238082 276.461015,386.708326 C274.366683,387.040632 272.35622,386.231812 271.934478,384.223345 C271.529509,382.304747 273.209289,379.485369 275.826006,379.067374 Z M299.91083,402.264017 C300.277458,401.448926 300.850164,401.072731 301.477984,400.972412 C302.630586,400.788494 303.744848,401.459376 303.955719,402.462565 C304.032399,402.8304 304.02521,403.302735 303.807151,403.810599 C299.158403,413.616766 282.729635,432.436999 274.143831,433.812203 C268.277783,434.752693 263.729678,432.173662 262.385376,425.782516 C261.079413,419.571107 263.315125,410.147406 265.759312,403.242126 C267.853644,397.241805 269.049379,394.692034 270.61893,394.439147 C272.399352,394.15491 273.638219,394.901032 273.908997,396.180097 C274.234889,397.732949 273.24044,400.721615 271.174863,405.304932 C268.987076,411.884176 267.02933,419.562748 268.184328,425.040574 C269.049379,429.151557 271.383337,430.478692 274.210926,430.025167 C279.763064,429.136927 295.631107,411.253003 299.91083,402.264017 Z" id="Stroke-23" stroke="#E9B224"></path>
                    <path d="M323.468201,395.367672 C321.74185,392.462628 318.493292,391.555493 314.204041,393.305599 C305.720956,396.770412 299.510086,414.070138 304.103334,425.258873 C306.009421,429.898536 309.573071,431.310126 312.766155,430.006949 C317.417096,428.108604 320.219643,421.440056 321.965965,413.505945 C323.23521,407.251139 323.539207,402.029582 323.468201,395.367672 M355.321376,393.456051 C355.785139,392.652905 356.366506,392.338726 356.958969,392.316601 C358.041821,392.278988 358.960471,393.128597 358.998193,394.212734 C359.013726,394.602138 358.931624,395.099956 358.654254,395.599987 C352.884957,405.248805 345.078655,421.276329 337.59854,424.329612 C333.036358,426.19477 327.859523,424.482277 325.318814,418.296059 C325.056976,417.658852 324.759636,416.933144 324.715256,416.311425 C322.864644,424.504402 319.536203,431.706168 313.877854,434.016043 C307.766838,436.509558 301.74236,434.294821 298.75564,427.017829 C293.225991,413.55462 301.542654,394.122021 312.766155,389.539883 C316.780254,387.900403 320.441539,387.999967 323.295122,390.020001 C323.079883,381.716398 323.002219,369.852844 323.190831,363.828141 C323.284027,361.454102 324.073977,359.748246 325.261121,359.265916 C326.812174,358.633134 328.096952,359.170777 328.618408,360.442979 C329.55259,362.717453 329.410576,367.556244 328.136893,375.085463 C328.012631,377.897581 327.959376,387.373822 328.116923,395.274746 C328.27225,405.514307 328.773735,412.957239 330.156147,416.322488 C331.798178,420.324944 334.278975,421.437843 336.83078,420.395745 C341.668113,418.419961 350.018061,402.301722 355.321376,393.456051" id="Fill-25" fill="#E9B224"></path>
                    <path d="M323.468201,395.367672 C321.74185,392.462628 318.493292,391.555493 314.204041,393.305599 C305.720956,396.770412 299.510086,414.070138 304.103334,425.258873 C306.009421,429.898536 309.573071,431.310126 312.766155,430.006949 C317.417096,428.108604 320.219643,421.440056 321.965965,413.505945 C323.23521,407.251139 323.539207,402.029582 323.468201,395.367672 Z M355.321376,393.456051 C355.785139,392.652905 356.366506,392.338726 356.958969,392.316601 C358.041821,392.278988 358.960471,393.128597 358.998193,394.212734 C359.013726,394.602138 358.931624,395.099956 358.654254,395.599987 C352.884957,405.248805 345.078655,421.276329 337.59854,424.329612 C333.036358,426.19477 327.859523,424.482277 325.318814,418.296059 C325.056976,417.658852 324.759636,416.933144 324.715256,416.311425 C322.864644,424.504402 319.536203,431.706168 313.877854,434.016043 C307.766838,436.509558 301.74236,434.294821 298.75564,427.017829 C293.225991,413.55462 301.542654,394.122021 312.766155,389.539883 C316.780254,387.900403 320.441539,387.999967 323.295122,390.020001 C323.079883,381.716398 323.002219,369.852844 323.190831,363.828141 C323.284027,361.454102 324.073977,359.748246 325.261121,359.265916 C326.812174,358.633134 328.096952,359.170777 328.618408,360.442979 C329.55259,362.717453 329.410576,367.556244 328.136893,375.085463 C328.012631,377.897581 327.959376,387.373822 328.116923,395.274746 C328.27225,405.514307 328.773735,412.957239 330.156147,416.322488 C331.798178,420.324944 334.278975,421.437843 336.83078,420.395745 C341.668113,418.419961 350.018061,402.301722 355.321376,393.456051 Z" id="Stroke-27" stroke="#E9B224"></path>
                    <path d="M357.792577,391.19261 C367.463628,381.794164 371.838025,370.648936 368.215693,365.541498 C366.888655,363.668929 364.643959,363.538395 362.580955,365.097682 C357.553388,368.895034 354.393335,380.688185 357.792577,391.19261 M388.946931,369.823012 C388.946931,369.823012 389.124023,368.460712 389.956584,368.06199 C391.164028,367.485267 392.293276,367.993163 392.808452,369.139489 C392.980944,369.521597 393.010843,370.088827 392.997043,370.561122 C391.145629,383.996628 386.628639,396.850664 377.228975,403.951712 C369.232246,409.994248 361.881787,409.272752 356.571334,401.784848 C346.610496,387.746513 351.366675,368.209137 360.189066,361.547158 C365.133836,357.80914 369.832518,358.181755 373.03167,362.688737 C377.918943,369.580931 371.895523,383.934921 359.441601,395.30087 C360.025773,396.300048 360.665144,397.382293 361.329813,398.319765 C365.011942,403.507897 370.182102,403.655044 375.046376,399.978733 C381.805763,394.873668 387.261109,382.368513 388.946931,369.823012" id="Fill-29" fill="#E9B224"></path>
                    <path d="M357.792577,391.19261 C367.463628,381.794164 371.838025,370.648936 368.215693,365.541498 C366.888655,363.668929 364.643959,363.538395 362.580955,365.097682 C357.553388,368.895034 354.393335,380.688185 357.792577,391.19261 Z M388.946931,369.823012 C388.946931,369.823012 389.124023,368.460712 389.956584,368.06199 C391.164028,367.485267 392.293276,367.993163 392.808452,369.139489 C392.980944,369.521597 393.010843,370.088827 392.997043,370.561122 C391.145629,383.996628 386.628639,396.850664 377.228975,403.951712 C369.232246,409.994248 361.881787,409.272752 356.571334,401.784848 C346.610496,387.746513 351.366675,368.209137 360.189066,361.547158 C365.133836,357.80914 369.832518,358.181755 373.03167,362.688737 C377.918943,369.580931 371.895523,383.934921 359.441601,395.30087 C360.025773,396.300048 360.665144,397.382293 361.329813,398.319765 C365.011942,403.507897 370.182102,403.655044 375.046376,399.978733 C381.805763,394.873668 387.261109,382.368513 388.946931,369.823012 Z" id="Stroke-31" stroke="#E9B224"></path>
                    <path d="M420.20975,359.401023 C423.85685,355.230617 425.073319,333.57318 422.305678,322.81616 C422.042533,321.855413 422.227196,321.169506 422.640381,320.696302 C423.3975,319.828762 424.699376,319.764234 425.537286,320.545738 C425.839672,320.830138 426.1536,321.267493 426.326721,321.860192 C429.357508,333.57796 428.341859,356.427965 422.700396,362.880744 C418.984048,367.132408 413.762693,367.249514 408.970681,362.758858 C402.890642,357.061294 402.11044,343.871337 397.932433,339.949481 C395.880363,338.027987 392.35791,340.315139 389.567187,341.132491 C392.071682,347.919858 392.981149,361.116984 392.565657,369.40761 C392.526416,370.411375 392.380993,371.226337 391.580016,371.699541 C390.596684,372.273121 389.389448,372.003061 388.883932,371.080552 C388.528456,370.432885 388.507681,369.959681 388.512298,369.10409 C388.971647,361.757482 388.579238,350.804489 385.202208,342.487574 L384.21426,341.560286 C379.119861,336.78523 378.039581,330.903642 379.761566,328.93435 C381.206556,327.282916 382.942391,327.192099 384.235034,328.403788 C385.527677,329.615476 387.044224,332.466648 388.413041,336.756551 C392.657988,336.013286 397.990141,332.13206 401.563375,335.480335 C406.657773,340.253001 406.842437,353.175287 413.150996,359.087944 C415.736282,361.511321 418.351576,361.52805 420.20975,359.401023" id="Fill-33" fill="#E9B224"></path>
                    <path d="M420.20975,359.401023 C423.85685,355.230617 425.073319,333.57318 422.305678,322.81616 C422.042533,321.855413 422.227196,321.169506 422.640381,320.696302 C423.3975,319.828762 424.699376,319.764234 425.537286,320.545738 C425.839672,320.830138 426.1536,321.267493 426.326721,321.860192 C429.357508,333.57796 428.341859,356.427965 422.700396,362.880744 C418.984048,367.132408 413.762693,367.249514 408.970681,362.758858 C402.890642,357.061294 402.11044,343.871337 397.932433,339.949481 C395.880363,338.027987 392.35791,340.315139 389.567187,341.132491 C392.071682,347.919858 392.981149,361.116984 392.565657,369.40761 C392.526416,370.411375 392.380993,371.226337 391.580016,371.699541 C390.596684,372.273121 389.389448,372.003061 388.883932,371.080552 C388.528456,370.432885 388.507681,369.959681 388.512298,369.10409 C388.971647,361.757482 388.579238,350.804489 385.202208,342.487574 L384.21426,341.560286 C379.119861,336.78523 378.039581,330.903642 379.761566,328.93435 C381.206556,327.282916 382.942391,327.192099 384.235034,328.403788 C385.527677,329.615476 387.044224,332.466648 388.413041,336.756551 C392.657988,336.013286 397.990141,332.13206 401.563375,335.480335 C406.657773,340.253001 406.842437,353.175287 413.150996,359.087944 C415.736282,361.511321 418.351576,361.52805 420.20975,359.401023 Z" id="Stroke-35" stroke="#E9B224"></path>
                    <path d="M452.120499,322.60703 C447.80107,316.800428 444.53157,313.155008 442.121638,310.152898 C444.945654,316.8656 446.448918,323.408013 444.135148,327.692538 C441.733066,332.141043 437.476437,333.494935 432.193427,330.219524 C427.214603,327.133321 421.562647,319.316902 417.882988,313.262226 C414.707687,307.947566 413.518421,305.48365 414.173891,304.270612 C414.915711,302.897798 416.106939,302.557223 417.164718,303.211044 C418.448183,304.00572 420.057421,306.621004 422.231854,310.991723 C425.815352,316.663777 430.444853,323.201986 434.74662,325.867725 C438.067145,327.923793 440.104204,327.137526 441.108996,325.279076 C443.073444,321.639964 441.122734,315.362442 438.151532,308.553034 C435.904486,303.385536 431.610569,297.162675 428.034922,292.035121 C425.038208,287.698039 424.213964,285.677711 424.914571,284.382683 C425.65639,283.007767 426.847619,282.667192 427.903436,283.321013 C429.186901,284.115689 430.709789,286.894953 432.88226,291.26357 C435.943736,295.855033 441.815491,302.515177 444.922104,306.274121 L452.114611,315.156415 C460.873181,325.979148 465.759769,337.638604 461.350065,345.804008 C458.773323,350.578372 454.603042,352.520914 451.826126,351.881809 C451.01562,351.70101 450.711435,351.513903 450.334638,351.282648 C449.353395,350.675079 448.829412,349.592385 449.528056,348.299459 C450.05204,347.33029 450.917496,347.218868 451.814351,347.235686 C454.626592,347.250402 456.671501,347.006534 458.329801,343.937149 C460.600396,339.732513 458.363163,331.005791 452.120499,322.60703" id="Fill-37" fill="#E9B224"></path>
                    <path d="M452.120499,322.60703 C447.80107,316.800428 444.53157,313.155008 442.121638,310.152898 C444.945654,316.8656 446.448918,323.408013 444.135148,327.692538 C441.733066,332.141043 437.476437,333.494935 432.193427,330.219524 C427.214603,327.133321 421.562647,319.316902 417.882988,313.262226 C414.707687,307.947566 413.518421,305.48365 414.173891,304.270612 C414.915711,302.897798 416.106939,302.557223 417.164718,303.211044 C418.448183,304.00572 420.057421,306.621004 422.231854,310.991723 C425.815352,316.663777 430.444853,323.201986 434.74662,325.867725 C438.067145,327.923793 440.104204,327.137526 441.108996,325.279076 C443.073444,321.639964 441.122734,315.362442 438.151532,308.553034 C435.904486,303.385536 431.610569,297.162675 428.034922,292.035121 C425.038208,287.698039 424.213964,285.677711 424.914571,284.382683 C425.65639,283.007767 426.847619,282.667192 427.903436,283.321013 C429.186901,284.115689 430.709789,286.894953 432.88226,291.26357 C435.943736,295.855033 441.815491,302.515177 444.922104,306.274121 L452.114611,315.156415 C460.873181,325.979148 465.759769,337.638604 461.350065,345.804008 C458.773323,350.578372 454.603042,352.520914 451.826126,351.881809 C451.01562,351.70101 450.711435,351.513903 450.334638,351.282648 C449.353395,350.675079 448.829412,349.592385 449.528056,348.299459 C450.05204,347.33029 450.917496,347.218868 451.814351,347.235686 C454.626592,347.250402 456.671501,347.006534 458.329801,343.937149 C460.600396,339.732513 458.363163,331.005791 452.120499,322.60703 Z" id="Stroke-39" stroke="#E9B224"></path>
                    <path d="M127.77254,205.03484 L127.77254,312.96516 L166.379041,312.96516 L166.379041,288.893661 C166.379041,287.005876 167.415754,285.590037 169.188469,285.590037 C170.96539,285.590037 172,287.005876 172,288.893661 L172,315.011752 C172,316.740731 171.112591,318 169.188469,318 L78.8115307,318 C77.1818102,318 76,317.056107 76,315.483699 C76,313.91129 77.1818102,312.96516 78.8115307,312.96516 L92.2719706,312.96516 L92.2719706,205.03484 L78.8115307,205.03484 C77.1818102,205.03484 76,204.08871 76,202.518538 C76,200.943893 77.1818102,200 78.8115307,200 L141.230877,200 C142.860598,200 144.044511,200.943893 144.044511,202.518538 C144.044511,204.08871 142.860598,205.03484 141.230877,205.03484 L127.77254,205.03484 Z" id="Fill-41" fill="#B5D7D0"></path>
                    <g id="Stroke-43" stroke="#B5D7D0">
                        <use xlink:href="#path-2"></use>
                        <use xlink:href="#path-2"></use>
                    </g>
                    <path d="M298.106597,258.213781 C298.106597,225.803203 279.83998,205.034935 251.849458,205.034935 L237.56204,205.034935 L237.56204,312.967302 L251.849458,312.967302 C277.483876,312.967302 298.106597,290.311212 298.106597,258.213781 M188.800099,312.967302 L202.203717,312.967302 L202.203717,205.034935 L188.800099,205.034935 C187.177005,205.034935 186,204.247597 186,202.518586 C186,201.100483 187.177005,200 188.800099,200 L250.819055,200 C281.607582,200 304,221.868752 304,258.213781 C304,294.402237 279.251478,318 250.819055,318 L188.800099,318 C187.177005,318 186,316.899517 186,315.483651 C186,313.752403 187.177005,312.967302 188.800099,312.967302" id="Fill-45" fill="#B5D7D0"></path>
                    <g id="Stroke-47" stroke="#B5D7D0">
                        <use xlink:href="#path-3"></use>
                        <use xlink:href="#path-3"></use>
                    </g>
                    <path d="M323.187488,286.231482 C323.187488,302.917056 337.16625,314.341374 352.589396,314.341374 C366.13382,314.341374 370.889017,305.923793 370.889017,297.657938 C370.889017,286.985838 363.251199,282.175486 346.389816,271.800427 C327.510394,260.22652 319.007995,252.862472 319.007995,236.324351 C319.007995,214.680974 338.321757,201 360.081751,201 C374.34939,201 382.130622,205.359448 386.885819,211.221196 L386.885819,205.660763 C386.885819,204.158463 387.7504,202.953204 389.479562,202.953204 C391.208725,202.953204 392.075355,204.158463 392.075355,205.660763 L392.075355,234.822051 C392.075355,236.476077 391.208725,237.677062 389.479562,237.677062 C387.7504,237.677062 386.885819,236.476077 386.885819,234.822051 L386.885819,220.993625 C386.885819,216.634177 379.969168,205.810352 364.259194,205.810352 C354.605387,205.810352 345.525235,210.770292 345.525235,222.045022 C345.525235,232.266218 350.137018,236.025173 369.159854,246.697273 C387.172646,256.76888 400,264.735557 400,283.07302 C400,306.222971 379.393464,319 357.201179,319 C338.754048,319 329.098191,312.386034 323.187488,303.216234 L323.187488,314.191785 C323.187488,315.843674 322.322906,317.046796 320.593744,317.046796 C318.86663,317.046796 318,315.843674 318,314.191785 L318,278.416531 C318,276.760368 318.86663,275.559383 320.593744,275.559383 C322.322906,275.559383 323.187488,276.760368 323.187488,278.416531 L323.187488,286.231482 Z" id="Fill-49" fill="#B5D7D0"></path>
                    <g id="Stroke-51" stroke="#B5D7D0">
                        <use xlink:href="#path-4"></use>
                        <use xlink:href="#path-4"></use>
                    </g>
                    <path d="M33.7336559,296 C33.7336559,296 -9.74596693,264.73696 2.01974197,226.499164 C21.1913325,164.206934 76.95225,144.647153 107.837775,133.669046 C212.137096,106.774078 217.94876,3.50006221 156.857248,0.451422355 C184.537081,-5.57291312 228.266946,49.71667 174.507968,105.516863 C162.015262,115.862071 164.105649,122.819664 93.2266372,146.738936 C48.1225958,161.540179 18.1948951,197.237799 8.08596372,224.611196 C5.24700645,232.302521 4.25898029,240.804815 5.46273269,249.064677 C7.66098303,264.164133 15.2480747,270.98871 35.9081763,294.159231 L33.7336559,296 Z" id="Fill-53" fill="#E9B224"></path>
                    <path d="M33.7336559,296 C33.7336559,296 -9.74596693,264.73696 2.01974197,226.499164 C21.1913325,164.206934 76.95225,144.647153 107.837775,133.669046 C212.137096,106.774078 217.94876,3.50006221 156.857248,0.451422355 C184.537081,-5.57291312 228.266946,49.71667 174.507968,105.516863 C162.015262,115.862071 164.105649,122.819664 93.2266372,146.738936 C48.1225958,161.540179 18.1948951,197.237799 8.08596372,224.611196 C5.24700645,232.302521 4.25898029,240.804815 5.46273269,249.064677 C7.66098303,264.164133 15.2480747,270.98871 35.9081763,294.159231 L33.7336559,296 Z" id="Stroke-55" stroke="#E9B224"></path>
                    <path d="M196.855396,82.4940631 C195.225972,84.1064248 187.811445,81.077518 179.262372,77.1341062 C177.65672,76.3612559 177.47087,75.8633819 177.991681,74.9592928 C178.523297,74.3385127 179.208346,74.3760095 181.021458,74.7363953 C189.134001,77.1278568 198.653381,79.973446 196.855396,82.4940631 M178.804232,71.7991472 L170.030411,69.2993617 C165.036248,68.0057227 162.896819,71.1679514 167.674877,73.7510631 L174.730672,77.3382554 C195.934793,88.7101965 320.979031,136.206122 393,159 C296.036311,113.818459 205.378536,80.9462792 178.804232,71.7991472" id="Fill-57" fill="#5F5F5F"></path>
                    <path d="M428.258032,159.211924 C428.204614,159.972591 428.146922,160.760881 428.189657,161.283574 C428.367005,163.571951 429.292207,165.870952 430.732361,167.592015 C431.941748,169.036858 434.155397,169.867643 437.313478,170.056748 C437.798515,170.08437 438.270732,170.099243 438.725854,170.099243 C441.610435,170.099243 443.971518,169.521306 445.747137,168.376055 C447.747113,167.09057 449.42017,164.481352 448.749238,161.991123 C447.674465,158.009304 442.067695,157.172145 437.554928,157.172145 C437.121173,157.172145 436.693828,157.180644 436.275029,157.195518 C434.416077,157.252886 430.696037,157.369749 428.31145,158.385389 C428.29863,158.65311 428.279399,158.933579 428.258032,159.211924 M455.603856,351 C453.821827,351 451.862448,350.320074 451.07827,349.960988 C448.180869,348.637256 446.027049,346.639973 445.009967,344.334598 C442.674525,339.052421 444.678774,333.506772 446.07833,330.670205 C447.373186,328.054613 449.065474,325.698244 450.704343,323.422616 C451.529119,322.283739 452.338938,321.155487 453.099613,319.995362 C462.379416,305.880518 463.60376,287.953837 464.68708,272.137052 C465.349466,262.416232 466.099457,251.426923 463.001203,241.648734 C461.323873,236.366557 458.499121,231.337227 455.751291,226.643611 C452.03125,220.29055 447.898821,213.569904 442.913838,207.465441 C441.063433,205.198312 439.020723,202.901436 437.044251,200.678927 C428.90546,191.529669 420.578637,182.172184 420.016678,170.010003 C419.800869,165.477869 421.679051,159.296915 425.67473,155.93128 C425.552936,151.870845 425.845668,146.5228 427.768721,143.036053 C430.982358,137.197186 438.834828,132 442.768541,132 L447.356092,132 L443.240757,134.016406 C440.119,135.544116 431.670384,140.354594 430.089206,144.189803 C428.907597,147.060367 428.33068,150.379257 428.30504,154.535306 C430.860565,153.666275 433.708821,153.577035 436.07845,153.500543 C436.586991,153.48567 437.02502,153.477171 437.465186,153.477171 C445.864657,153.477171 451.007758,156.088513 452.341075,161.028602 C453.47354,165.233521 450.896648,169.470311 447.764207,171.482468 C445.375347,173.018677 442.328375,173.796342 438.706624,173.796342 C438.180989,173.796342 437.642534,173.779344 437.091259,173.747473 C432.486613,173.471253 430.388348,171.682197 428.805034,169.789027 C426.76446,167.345542 426.268739,164.200883 426.05934,161.445057 L425.976008,160.529281 C424.418334,163.433841 423.619199,167.470903 423.728172,169.837897 C424.232439,180.699719 432.121233,189.560008 439.745073,198.131328 C441.839065,200.485573 443.905279,202.810071 445.802692,205.132444 C450.95434,211.445134 455.174374,218.306015 458.96279,224.780188 C461.819594,229.656534 464.755456,234.887717 466.546032,240.535355 C469.860095,250.989221 469.082327,262.354613 468.398574,272.383526 C467.283203,288.665635 466.020398,307.100136 456.217097,322.018143 C455.424371,323.220763 454.580365,324.391511 453.738494,325.560134 C452.172274,327.738023 450.574002,329.962656 449.41376,332.302028 C447.616773,335.941758 447.529167,340.031939 449.193677,342.717648 C450.819726,345.345988 453.920116,345.626458 458.46707,345.758193 L459.975599,345.800689 L458.274764,350.190463 L458.001263,350.377443 C457.392296,350.789648 456.586751,351 455.603856,351" id="Fill-59" fill="#E9B224"></path>
                    <path d="M429.968772,159.926867 C432.065319,159.205074 435.081153,159.108273 436.649469,159.057769 C437.046666,159.043038 437.443864,159.036725 437.849251,159.036725 C441.096442,159.036725 446.675632,159.554396 447.582634,163.026578 C448.094487,164.987835 446.706343,167.155319 445.138028,168.196973 C443.604518,169.21548 441.528445,169.733151 438.967136,169.733151 C438.547417,169.733151 438.117461,169.71842 437.679316,169.693168 C434.98083,169.526924 433.050123,168.813549 432.093983,167.628798 C430.867585,166.11156 430.044526,163.998789 429.890971,161.974402 C429.858212,161.532488 429.911445,160.755982 429.958535,160.069963 C429.96263,160.021562 429.964677,159.973162 429.968772,159.926867 Z M451.636505,132 L442.838787,132 C438.7194,132 430.86349,137.296656 427.569209,143.47714 C425.695829,146.99141 425.343675,152.199683 425.423524,156.290545 C421.603058,159.907927 419.80748,166.145229 420.016316,170.747449 C420.573211,183.161026 428.672762,192.571692 436.504103,201.668809 C438.457331,203.937302 440.418749,206.214212 442.187711,208.455347 C446.919274,214.448544 450.852347,221.062525 454.39846,227.314558 C457.002764,231.914673 459.676681,236.832545 461.249091,241.962958 C464.162555,251.466215 463.452104,262.251023 462.821502,271.764803 C461.793702,287.303344 460.630774,304.914673 451.884241,318.666619 C451.18198,319.771404 450.406012,320.884607 449.65666,321.962035 C448.022827,324.308389 446.374663,326.675786 445.095032,329.350418 C443.672083,332.321764 441.647195,338.144509 444.052901,343.769444 C445.430807,346.997521 448.25009,348.872499 450.373253,349.876276 C451.255687,350.292937 453.251911,351 455.139622,351 C456.290266,351 457.258691,350.730643 458.014185,350.200346 L458.542416,349.82998 L458.769679,349.215509 L459.76472,346.564024 L460.802756,343.790487 L457.909767,343.704209 C453.890702,343.584261 451.157411,343.346469 449.86959,341.19582 C448.452783,338.834736 448.557201,335.18158 450.129611,331.894581 C451.206549,329.645027 452.719584,327.469127 454.183482,325.366878 C454.981971,324.224214 455.80503,323.041568 456.580998,321.823148 C466.12602,306.812799 467.344229,288.406025 468.419119,272.166734 C469.082479,262.13318 469.833878,250.771779 466.601019,240.228971 C464.854579,234.536696 462.00868,229.294754 459.246725,224.414759 C455.594147,217.967022 451.525945,211.132084 446.544598,204.819026 C444.710119,202.497924 442.722085,200.187345 440.795473,197.950418 L440.711529,197.849409 C433.521027,189.501441 426.086884,180.865177 425.620075,170.478092 C425.558653,169.122888 425.79001,167.365754 426.238393,165.631767 C426.6274,167.555146 427.327614,169.484837 428.67481,171.151485 C430.949481,173.965004 433.457558,175.210781 437.339446,175.448573 C437.888151,175.484347 438.42662,175.499078 438.952804,175.499078 C442.621762,175.499078 445.727681,174.672067 448.184573,173.039089 C451.497281,170.84004 454.214193,166.178899 453.000079,161.530383 C452.01937,157.763592 448.577675,153.272903 437.765307,153.272903 C437.329209,153.272903 436.897205,153.279216 436.473392,153.293946 C434.487405,153.359181 432.220922,153.432834 430.038384,153.965235 C430.167371,150.642462 430.687413,147.911012 431.637411,145.520467 C432.878141,142.416547 439.720583,138.028971 443.745789,135.994062 L451.636505,132 Z M442.838787,134.104353 C442.838787,134.104353 431.737734,139.720871 429.745605,144.725022 C428.230522,148.523378 427.874273,152.734189 427.974596,156.949207 C430.566616,155.579274 433.901845,155.482473 436.536861,155.396195 C436.940201,155.383569 437.349683,155.377256 437.765307,155.377256 C443.272838,155.377256 449.60138,156.625137 451.024329,162.075411 C451.984564,165.75382 449.763125,169.484837 447.072829,171.273537 C444.947619,172.683453 442.210232,173.394725 438.952804,173.394725 C438.465521,173.394725 437.970048,173.379994 437.460243,173.348429 C433.705294,173.11695 431.87491,171.814356 430.251315,169.804699 C428.54787,167.700346 428.062634,164.998357 427.849704,162.134333 C428.048302,164.737417 429.100671,167.220553 430.521573,168.975584 C431.866721,170.640127 434.231478,171.587086 437.552376,171.793312 C438.035565,171.822773 438.508516,171.837504 438.967136,171.837504 C441.931785,171.837504 444.378439,171.208302 446.249771,169.96463 C448.4794,168.481061 450.330258,165.436062 449.558384,162.481551 C448.389314,157.992966 442.808076,156.932372 437.849251,156.932372 C437.423389,156.932372 437.001623,156.938686 436.583952,156.953416 C434.053354,157.035486 430.314784,157.21646 427.993022,158.510637 C427.99507,158.394898 427.997117,158.285471 427.997117,158.178149 C428.027828,158.041366 428.05035,157.91721 428.011449,157.91721 C428.007354,157.91721 427.999165,157.919314 427.988927,157.925627 C427.993022,158.005592 427.99507,158.089767 427.997117,158.178149 C427.960264,158.340184 427.917268,158.519054 427.970501,158.519054 C427.974596,158.519054 427.982785,158.51695 427.990975,158.512741 C427.993022,158.512741 427.993022,158.510637 427.993022,158.510637 C427.966406,159.653301 427.778044,161.174748 427.849704,162.134333 C427.790329,161.357826 427.581493,159.165091 427.534403,158.380167 C424.856391,161.149496 423.421157,167.15111 423.572666,170.576996 C424.074281,181.70271 431.752066,190.620957 439.178019,199.246699 C441.114868,201.498357 443.121329,203.825771 444.953761,206.146872 C449.847069,212.342087 453.864086,219.09706 457.475716,225.471144 C460.182391,230.25013 462.96482,235.374229 464.647791,240.862381 C467.763948,251.024301 467.028928,262.175267 466.375804,272.015221 C465.319341,287.999885 464.121606,306.118363 454.867317,320.669963 C454.117965,321.8484 453.317428,322.995272 452.520985,324.142145 C451.005903,326.315941 449.443729,328.56339 448.291038,330.966561 C446.337809,335.05111 446.388995,339.396598 448.125198,342.296397 C450.055905,345.520265 453.862039,345.688613 457.852439,345.808562 L456.859446,348.46215 C456.411063,348.775699 455.800935,348.895647 455.139622,348.895647 C453.67163,348.895647 451.955901,348.308533 451.22907,347.963419 C448.962588,346.894408 446.902894,345.208821 445.92628,342.923494 C443.854302,338.079274 445.668307,332.921505 446.931558,330.278438 C448.137482,327.759527 449.738556,325.45947 451.288445,323.235169 C452.072603,322.107236 452.860855,320.975094 453.597923,319.815595 C462.635187,305.609109 463.81859,287.705275 464.864816,271.907899 C465.503608,262.206832 466.232485,251.213693 463.20232,241.331652 C461.56644,235.995013 458.829053,230.957192 456.167421,226.258172 C452.584455,219.936696 448.606339,213.24275 443.774453,207.129605 C441.962496,204.833756 439.970367,202.518968 438.041707,200.279937 C430.441724,191.450072 422.585814,182.325598 422.061678,170.648544 C421.865126,166.298847 423.711889,160.225685 427.499597,157.243817 C427.323519,152.544797 427.71048,147.59115 429.364787,144.48723 C432.448185,138.702364 439.724677,134.104353 442.838787,134.104353 Z" id="Fill-61" fill="#E9B224"></path>
                </g>
            </g>
        </g>
    </g>
</svg>